<svg width="541" height="541" viewBox="0 0 541 541" fill="none" xmlns="http://www.w3.org/2000/svg">
<rect x="7.5" y="7.5" width="526" height="526" rx="42.5" fill="white" stroke="#DDB152" stroke-width="15"/>
<path d="M234.552 322.071L216.407 294.782C214.61 292.045 214.952 288.452 217.263 286.142C219.574 283.832 223.169 283.49 225.907 285.286L251.157 302.139C252.954 303.337 255.351 302.139 255.436 299.915L263.396 58.8438C263.482 54.9941 266.648 52 270.5 52C274.352 52 277.433 54.9941 277.604 58.8438L285.65 300C285.735 302.139 288.132 303.337 289.929 302.225L315.178 285.372C317.917 283.575 321.512 283.918 323.823 286.227C326.134 288.537 326.476 292.13 324.679 294.868L306.448 322.071C305.335 323.697 306.277 325.921 308.16 326.263L340.342 332.679C343.509 333.278 345.819 336.101 345.819 339.352C345.819 342.603 343.509 345.426 340.342 346.025L308.16 352.612C306.277 352.954 305.335 355.178 306.448 356.804L324.593 384.093C326.39 386.83 326.048 390.423 323.737 392.733C321.426 395.043 317.831 395.385 315.093 393.589L292.582 378.532C290.699 377.335 288.217 378.704 288.303 380.928L290.1 433.539C341.198 424.3 380.056 379.559 380.056 325.75C380.056 294.098 366.618 265.525 345.135 245.593C339.143 240.032 339.571 229.681 345.991 224.719C375.006 202.135 393.75 166.889 393.75 127.281C393.75 112.909 391.268 99.0508 386.732 86.2188C382.794 75.0977 395.462 60.5547 405.048 67.3984C450.839 99.9062 484.39 148.497 497.314 204.872C497.742 206.669 497.143 208.551 495.859 209.92L471.552 234.215C468.128 237.637 470.525 243.539 475.403 243.539H497.657C500.567 243.539 502.963 245.764 503.049 248.672C503.134 251.495 503.22 254.318 503.22 257.227C503.22 272.198 501.765 286.912 499.112 301.113C498.94 302.139 498.341 303.166 497.657 303.936L457.857 343.715C454.434 347.137 456.83 353.039 461.709 353.039H474.205C478.142 353.039 480.795 357.146 479.084 360.739C440.996 437.389 361.91 490 270.5 490C179.09 490 100.004 437.389 61.9165 360.824C60.1191 357.231 62.7724 353.125 66.7952 353.125H79.2057C84.0844 353.125 86.5665 347.222 83.0573 343.8L43.3434 304.021C42.5731 303.251 42.0596 302.31 41.8884 301.198C39.1495 286.997 37.6945 272.283 37.6945 257.312C37.6945 254.489 37.78 251.581 37.8656 248.758C37.9512 245.849 40.3478 243.625 43.2578 243.625H65.5113C70.3899 243.625 72.8721 237.722 69.3629 234.3L45.0552 209.92C43.7714 208.636 43.1722 206.669 43.6002 204.872C56.6099 148.497 90.1613 99.9062 135.952 67.3984C145.624 60.5547 158.206 75.0121 154.268 86.2188C149.732 99.0508 147.25 112.909 147.25 127.281C147.25 166.889 165.994 202.135 195.009 224.719C201.429 229.681 201.857 240.032 195.865 245.593C174.382 265.525 160.944 294.098 160.944 325.75C160.944 379.559 199.802 424.3 250.9 433.539L252.697 380.928C252.783 378.704 250.301 377.335 248.418 378.532L225.907 393.589C223.169 395.385 219.574 395.043 217.263 392.733C214.952 390.423 214.61 386.83 216.407 384.093L234.552 356.804C235.665 355.178 234.723 352.954 232.84 352.612L200.658 346.196C197.492 345.597 195.181 342.774 195.181 339.523C195.181 336.272 197.492 333.449 200.658 332.85L232.84 326.434C234.723 326.092 235.665 323.868 234.552 322.243V322.071Z" fill="#DDB152"/>
</svg>
